<?xml version="1.0" encoding="iso-8859-1"?>
<!-- Generator: Adobe Illustrator 17.1.0, SVG Export Plug-In . SVG Version: 6.00 Build 0)  -->
<!DOCTYPE svg PUBLIC "-//W3C//DTD SVG 1.1//EN" "http://www.w3.org/Graphics/SVG/1.1/DTD/svg11.dtd">
<svg version="1.1" id="Capa_1" xmlns="http://www.w3.org/2000/svg" xmlns:xlink="http://www.w3.org/1999/xlink" x="0px" y="0px"
	 viewBox="0 0 460 460" style="enable-background:new 0 0 460 460;" xml:space="preserve">
<g>
	<path style="fill:#FEA621;" d="M257.827,357.802c59.059-12.957,101.924-66.257,101.924-126.738v-40.537c0-5.523,4.478-10,10-10
		h21.883c-1.587-30.941-10.461-59.084-23.911-76.23c-14.886,18.977-24.166,51.427-24.166,86.23v40.537
		c0,26.813-9.558,52.855-26.912,73.331c-17.146,20.229-40.871,33.898-66.804,38.488c-2.914,0.515-5.903-0.285-8.169-2.185
		c-2.266-1.9-3.574-4.706-3.574-7.663V128.788c0-5.523,4.478-10,10-10H260c-1.671-38.538-12.899-73.684-30-94.313
		c-17.101,20.629-28.329,55.775-30,94.313h11.902c5.522,0,10,4.477,10,10v204.248c0,2.957-1.309,5.762-3.574,7.663
		s-5.257,2.7-8.169,2.185c-25.933-4.59-49.657-18.258-66.804-38.488c-17.354-20.476-26.912-46.518-26.912-73.331v-40.537
		c0-34.803-9.28-67.253-24.166-86.23c-13.45,17.146-22.324,45.289-23.911,76.23h21.883c5.522,0,10,4.477,10,10v40.537
		c0,54.589,34.923,103.324,85.153,121.829c0.269,0.099,0.536,0.2,0.805,0.297c0.79,0.285,1.583,0.564,2.381,0.834
		c0.934,0.315,1.87,0.621,2.811,0.915c0.681,0.213,1.365,0.417,2.051,0.619c0.816,0.24,1.634,0.471,2.454,0.695
		c0.811,0.221,1.625,0.434,2.442,0.64c0.778,0.196,1.558,0.384,2.339,0.565c0.496,0.115,0.99,0.234,1.488,0.344
		c0.033,0.007,0.065,0.019,0.098,0.026c6.376,1.393,12.863,2.309,19.421,2.725c5.512,0.35,9.697,5.102,9.347,10.613
		c-0.336,5.296-4.736,9.367-9.97,9.367c-0.213,0-0.428-0.007-0.643-0.021c-3.485-0.221-6.95-0.58-10.396-1.041V450h39.939v-82.43
		C249.97,362.873,253.239,358.809,257.827,357.802z"/>
	<path d="M374.443,82.204c-3.813-3.459-9.629-3.459-13.439,0c-23.098,20.96-37.446,62.467-37.446,108.324v33.449l-65.459,22.979
		V138.788h12.118c5.522,0,10-4.477,10-10c0-53.493-16.667-101.848-43.496-126.193c-3.813-3.46-9.627-3.46-13.439,0
		c-26.829,24.346-43.496,72.7-43.496,126.193c0,5.523,4.478,10,10,10h12.118v108.167l-65.459-22.979v-33.449
		c0-45.856-14.349-87.364-37.446-108.324c-3.812-3.459-9.628-3.459-13.439,0c-23.099,20.96-37.447,62.467-37.447,108.324v38.317
		c0,5.523,4.478,10,10,10s10-4.477,10-10v-28.317h12.139v30.537c0,34.301,11.941,67.844,33.625,94.452
		c16.204,19.884,37.284,35.256,60.832,44.672c0.289,0.146,0.586,0.282,0.893,0.402c1.106,0.433,2.225,0.827,3.341,1.233
		c0.053,0.019,0.106,0.039,0.159,0.059c1.646,0.597,3.302,1.162,4.965,1.699c0.235,0.076,0.47,0.155,0.705,0.23
		c1.502,0.477,3.012,0.926,4.527,1.354c0.245,0.07,0.487,0.151,0.733,0.219V450c0,5.523,4.478,10,10,10s10-4.477,10-10v-70.528
		c3.446,0.461,6.911,0.82,10.396,1.041c0.215,0.014,0.43,0.021,0.643,0.021c5.233,0,9.634-4.071,9.97-9.367
		c0.351-5.512-3.835-10.264-9.347-10.613c-6.558-0.416-13.045-1.332-19.421-2.725c-0.033-0.008-0.065-0.019-0.098-0.026
		c-0.498-0.109-0.992-0.229-1.488-0.344c-0.782-0.181-1.562-0.37-2.339-0.565c-0.817-0.206-1.632-0.418-2.442-0.64
		c-0.82-0.224-1.638-0.455-2.454-0.695c-0.686-0.202-1.37-0.406-2.051-0.619c-0.94-0.294-1.877-0.6-2.811-0.915
		c-0.798-0.27-1.591-0.549-2.381-0.834c-0.269-0.097-0.537-0.198-0.805-0.297c-50.229-18.505-85.153-67.24-85.153-121.829v-40.537
		c0-5.523-4.478-10-10-10H68.366c1.587-30.941,10.461-59.084,23.911-76.23c14.886,18.977,24.166,51.427,24.166,86.23v40.537
		c0,26.813,9.558,52.855,26.912,73.331c17.146,20.229,40.871,33.898,66.804,38.488c2.912,0.515,5.903-0.284,8.169-2.185
		s3.574-4.706,3.574-7.663V128.788c0-5.523-4.478-10-10-10H200c1.671-38.538,12.899-73.684,30-94.313
		c17.101,20.629,28.329,55.775,30,94.313h-11.902c-5.522,0-10,4.477-10,10v204.248c0,2.957,1.309,5.762,3.574,7.663
		c2.266,1.9,5.255,2.699,8.169,2.185c25.933-4.59,49.657-18.258,66.804-38.488c17.354-20.476,26.912-46.518,26.912-73.331v-40.537
		c0-34.803,9.28-67.253,24.166-86.23c13.45,17.146,22.324,45.289,23.911,76.23h-21.883c-5.522,0-10,4.477-10,10v40.537
		c0,60.48-42.865,113.781-101.924,126.738c-4.588,1.006-7.857,5.07-7.857,9.768V450c0,5.523,4.478,10,10,10s10-4.477,10-10v-74.615
		c29.698-8.256,56.508-25.758,76.156-49.869c21.684-26.607,33.625-60.151,33.625-94.452v-30.537h12.139v28.317
		c0,5.523,4.478,10,10,10s10-4.477,10-10v-38.317C411.89,144.671,397.541,103.164,374.443,82.204z M322.428,245.57
		c-5.451,35.059-30.359,64.124-64.33,74.757v-52.174L322.428,245.57z M201.902,320.327c-33.971-10.634-58.879-39.698-64.33-74.757
		l64.33,22.583V320.327z"/>
</g>
<g>
</g>
<g>
</g>
<g>
</g>
<g>
</g>
<g>
</g>
<g>
</g>
<g>
</g>
<g>
</g>
<g>
</g>
<g>
</g>
<g>
</g>
<g>
</g>
<g>
</g>
<g>
</g>
<g>
</g>
</svg>
