<?xml version="1.0" encoding="iso-8859-1"?>
<!-- Generator: Adobe Illustrator 17.1.0, SVG Export Plug-In . SVG Version: 6.00 Build 0)  -->
<!DOCTYPE svg PUBLIC "-//W3C//DTD SVG 1.1//EN" "http://www.w3.org/Graphics/SVG/1.1/DTD/svg11.dtd">
<svg version="1.1" id="Capa_1" xmlns="http://www.w3.org/2000/svg" xmlns:xlink="http://www.w3.org/1999/xlink" x="0px" y="0px"
	 viewBox="0 0 460.001 460.001" style="enable-background:new 0 0 460.001 460.001;" xml:space="preserve">
<g>
	<path style="fill:#333333;" d="M335.94,199.013c-3.154,0.912-6.557,0.217-9.102-1.86c-27.234-22.231-61.625-34.475-96.838-34.475
		s-69.604,12.243-96.838,34.475c-2.544,2.077-5.947,2.772-9.102,1.86c-3.155-0.912-5.661-3.316-6.704-6.43L76.74,71.335v291.966
		l153.26,75.551l153.26-75.551V71.335l-40.616,121.247C341.602,195.697,339.096,198.101,335.94,199.013z M212.883,342.23
		c-11.823,13.639-28.962,21.461-47.024,21.461c-8.263,0-16.344-1.632-24.02-4.851c-24.848-10.421-40.095-35.465-37.941-62.319
		c0.257-3.196,2.03-6.075,4.769-7.742c2.738-1.667,6.11-1.92,9.067-0.68l91.46,38.359c2.957,1.24,5.14,3.823,5.87,6.945
		C215.794,336.524,214.983,339.807,212.883,342.23z M351.333,288.779c2.739,1.667,4.512,4.546,4.769,7.742
		c2.154,26.854-13.093,51.897-37.941,62.319c-7.675,3.219-15.756,4.851-24.02,4.851c-18.062,0-35.201-7.822-47.024-21.461
		c-2.1-2.423-2.911-5.706-2.181-8.827c0.73-3.122,2.913-5.705,5.87-6.945l91.46-38.359
		C345.223,286.859,348.594,287.111,351.333,288.779z"/>
	<path d="M394.87,0.131c-4.841-0.789-9.535,2.045-11.091,6.693l-55.704,166.286c-28.719-19.709-63.039-30.432-98.075-30.432
		s-69.355,10.724-98.075,30.432L76.222,6.825c-1.557-4.648-6.251-7.482-11.091-6.693c-4.837,0.789-8.391,4.968-8.391,9.87v359.52
		c0,3.808,2.163,7.286,5.579,8.969l163.26,80.48c1.394,0.687,2.908,1.031,4.421,1.031s3.028-0.344,4.421-1.031l163.26-80.48
		c3.416-1.684,5.579-5.161,5.579-8.969V10.001C403.261,5.099,399.708,0.92,394.87,0.131z M383.261,363.301l-153.26,75.551
		L76.74,363.301V71.335l40.616,121.247c1.043,3.114,3.549,5.518,6.704,6.43c3.155,0.913,6.558,0.217,9.102-1.86
		c27.234-22.231,61.625-34.475,96.838-34.475s69.604,12.243,96.838,34.475c2.545,2.077,5.947,2.771,9.102,1.86
		c3.155-0.912,5.661-3.316,6.704-6.43l40.616-121.247V363.301z"/>
	<path d="M209.195,326.458l-91.46-38.359c-2.957-1.241-6.329-0.987-9.067,0.68c-2.739,1.667-4.512,4.546-4.769,7.742
		c-2.154,26.854,13.093,51.897,37.941,62.319c7.675,3.219,15.756,4.851,24.02,4.851c18.062,0,35.201-7.822,47.024-21.461
		c2.1-2.423,2.911-5.706,2.181-8.827C214.334,330.281,212.151,327.698,209.195,326.458z M149.575,340.396
		c-12.136-5.09-20.896-15.321-24.306-27.45l60.906,25.544c-6.155,3.375-13.127,5.2-20.315,5.2
		C160.267,343.691,154.788,342.582,149.575,340.396z"/>
	<path d="M250.806,326.458c-2.957,1.24-5.14,3.823-5.87,6.945c-0.73,3.122,0.081,6.405,2.181,8.827
		c11.823,13.639,28.962,21.461,47.024,21.461c8.263,0,16.344-1.632,24.02-4.851c24.848-10.421,40.095-35.465,37.941-62.319
		c-0.257-3.196-2.03-6.075-4.769-7.742c-2.739-1.667-6.111-1.92-9.067-0.68L250.806,326.458z M294.142,343.691
		c-7.188,0-14.16-1.825-20.315-5.2l60.906-25.544c-3.41,12.128-12.17,22.36-24.306,27.45
		C305.213,342.582,299.734,343.691,294.142,343.691z"/>
</g>
<g>
</g>
<g>
</g>
<g>
</g>
<g>
</g>
<g>
</g>
<g>
</g>
<g>
</g>
<g>
</g>
<g>
</g>
<g>
</g>
<g>
</g>
<g>
</g>
<g>
</g>
<g>
</g>
<g>
</g>
</svg>
