<?xml version="1.0" encoding="iso-8859-1"?>
<!-- Generator: Adobe Illustrator 17.1.0, SVG Export Plug-In . SVG Version: 6.00 Build 0)  -->
<!DOCTYPE svg PUBLIC "-//W3C//DTD SVG 1.1//EN" "http://www.w3.org/Graphics/SVG/1.1/DTD/svg11.dtd">
<svg version="1.1" id="Capa_1" xmlns="http://www.w3.org/2000/svg" xmlns:xlink="http://www.w3.org/1999/xlink" x="0px" y="0px"
	 viewBox="0 0 460 460" style="enable-background:new 0 0 460 460;" xml:space="preserve">
<g>
	<path style="fill:#FDF133;" d="M230,20C114.206,20,20,114.206,20,230s94.206,210,210,210s210-94.206,210-210S345.794,20,230,20z
		 M230,416.5c-102.837,0-186.5-83.664-186.5-186.5S127.163,43.5,230,43.5S416.5,127.164,416.5,230S332.837,416.5,230,416.5z"/>
	<path d="M392.635,67.366C349.193,23.924,291.436,0,230,0S110.807,23.924,67.365,67.366C23.924,110.807,0,168.565,0,230
		s23.924,119.193,67.365,162.634C110.807,436.076,168.564,460,230,460s119.193-23.924,162.635-67.366
		C436.076,349.193,460,291.435,460,230S436.076,110.807,392.635,67.366z M230,440c-115.794,0-210-94.206-210-210S114.206,20,230,20
		s210,94.206,210,210S345.794,440,230,440z"/>
	<path style="fill:#333333;" d="M230,63.5c-91.809,0-166.5,74.691-166.5,166.5S138.191,396.5,230,396.5S396.5,321.809,396.5,230
		S321.809,63.5,230,63.5z M314.566,320.248c1.201,3.078,0.806,6.551-1.059,9.279c-1.863,2.728-4.953,4.359-8.257,4.359
		c-0.001,0-0.001,0-0.002,0l-150.502-0.025c-3.304,0-6.395-1.633-8.257-4.362c-1.863-2.729-2.258-6.202-1.055-9.279L180.71,230
		l-35.274-90.219c-1.203-3.078-0.809-6.55,1.055-9.279c1.862-2.729,4.953-4.362,8.257-4.362l150.502-0.025
		c3.305,0,6.396,1.631,8.259,4.359c1.864,2.728,2.26,6.201,1.059,9.279L279.325,230L314.566,320.248z"/>
	<path d="M230,43.5C127.163,43.5,43.5,127.164,43.5,230S127.163,416.5,230,416.5S416.5,332.836,416.5,230S332.837,43.5,230,43.5z
		 M230,396.5c-91.809,0-166.5-74.691-166.5-166.5S138.191,63.5,230,63.5S396.5,138.191,396.5,230S321.809,396.5,230,396.5z"/>
	<path style="fill:#ED1B24;" d="M200.761,226.358c0.915,2.341,0.915,4.942,0,7.283l-31.365,80.221l121.214,0.02l-31.326-80.222
		c-0.452-1.16-0.685-2.393-0.685-3.638s0.232-2.525,0.685-3.685l31.326-80.222l-121.214,0.02L200.761,226.358z"/>
	<path d="M313.508,130.474c-1.863-2.728-4.954-4.359-8.259-4.359l-150.502,0.025c-3.304,0-6.395,1.633-8.257,4.362
		c-1.863,2.729-2.258,6.202-1.055,9.279L180.71,230l-35.274,90.219c-1.203,3.078-0.809,6.55,1.055,9.279
		c1.862,2.729,4.953,4.362,8.257,4.362l150.502,0.025c0.001,0,0.001,0,0.002,0c3.304,0,6.394-1.631,8.257-4.359
		c1.864-2.728,2.26-6.201,1.059-9.279L279.325,230l35.241-90.248C315.768,136.674,315.372,133.202,313.508,130.474z
		 M259.283,226.339c-0.452,1.16-0.685,2.44-0.685,3.685s0.232,2.478,0.685,3.638l31.326,80.222l-121.214-0.02l31.365-80.221
		c0.915-2.341,0.915-4.942,0-7.283l-31.365-80.221l121.214-0.02L259.283,226.339z"/>
</g>
<g>
</g>
<g>
</g>
<g>
</g>
<g>
</g>
<g>
</g>
<g>
</g>
<g>
</g>
<g>
</g>
<g>
</g>
<g>
</g>
<g>
</g>
<g>
</g>
<g>
</g>
<g>
</g>
<g>
</g>
</svg>
