<?xml version="1.0" encoding="iso-8859-1"?>
<!-- Generator: Adobe Illustrator 17.1.0, SVG Export Plug-In . SVG Version: 6.00 Build 0)  -->
<!DOCTYPE svg PUBLIC "-//W3C//DTD SVG 1.1//EN" "http://www.w3.org/Graphics/SVG/1.1/DTD/svg11.dtd">
<svg version="1.1" id="Capa_1" xmlns="http://www.w3.org/2000/svg" xmlns:xlink="http://www.w3.org/1999/xlink" x="0px" y="0px"
	 viewBox="0 0 460 460" style="enable-background:new 0 0 460 460;" xml:space="preserve">
<g>
	<polygon style="fill:#0066BB;" points="228.847,150.874 221.894,168.843 238.106,168.843 231.153,150.874 	"/>
	<path style="fill:#0066BB;" d="M393.274,233.408c-0.282-0.565-0.529-1.15-0.701-1.771c-5.345-19.191-13.378-37.042-23.875-53.054
		c-0.489-0.745-0.862-1.538-1.131-2.355c-33.049-48.724-86.302-74.256-137.566-74.256s-104.517,25.533-137.566,74.256
		c-0.269,0.817-0.643,1.609-1.131,2.355c-10.497,16.013-18.53,33.863-23.875,53.054c-0.173,0.62-0.42,1.206-0.701,1.771
		c-4.628,17.588-7.176,36.858-7.176,57.771c0,21.783,2.864,43.918,8.519,65.892c8.679,1.337,16.999,2.013,24.805,2.013
		c36.549,0,58.068-14.361,78.878-28.249c17.875-11.928,34.757-23.195,58.248-23.195c23.49,0,40.375,11.267,58.252,23.195
		c20.813,13.887,42.333,28.247,78.875,28.249c0.003,0,0.006,0,0.009,0c7.801,0,16.117-0.676,24.795-2.013
		c5.655-21.974,8.519-44.108,8.519-65.892C400.45,270.267,397.902,250.996,393.274,233.408z M213.377,274.262
		c-11.672,20.03-33.428,32.473-56.777,32.473c-4.458,0-8.95-0.457-13.35-1.357c-27.829-5.696-48.674-28.274-51.869-56.181
		c-0.535-4.675,2.261-9.091,6.717-10.605c0.708-0.24,17.59-5.893,39.83-5.893c29.925,0,55.528,10.243,74.04,29.621
		C215.046,265.542,215.621,270.412,213.377,274.262z M214.155,188.843l-8.237,21.288c-1.993,5.151-7.785,7.71-12.935,5.718
		c-5.15-1.993-7.71-7.784-5.717-12.935l25.402-65.649c1.491-3.852,5.196-6.391,9.326-6.391h16.013c4.13,0,7.835,2.539,9.326,6.391
		l25.402,65.649c1.993,5.151-0.567,10.942-5.717,12.935c-1.187,0.459-2.407,0.677-3.606,0.677c-4.011,0-7.794-2.429-9.329-6.394
		l-8.237-21.288H214.155z M368.619,249.196c-3.195,27.908-24.04,50.485-51.869,56.181c-4.4,0.901-8.892,1.357-13.35,1.357
		c-23.35,0-45.105-12.443-56.777-32.473c-2.244-3.85-1.669-8.72,1.41-11.943c18.512-19.378,44.115-29.621,74.04-29.621
		c22.244,0,39.123,5.652,39.831,5.893C366.358,240.106,369.154,244.521,368.619,249.196z"/>
	<path d="M137.928,232.698c-22.24,0-39.123,5.652-39.83,5.893c-4.456,1.515-7.252,5.93-6.717,10.605
		c3.195,27.908,24.04,50.485,51.869,56.181c4.4,0.901,8.892,1.357,13.35,1.357c23.35,0,45.105-12.443,56.777-32.473
		c2.244-3.85,1.669-8.72-1.41-11.943C193.456,242.941,167.853,232.698,137.928,232.698z M156.6,286.735
		c-3.114,0-6.257-0.32-9.339-0.951c-16.43-3.363-29.35-15.152-34.213-30.458c6.016-1.274,14.784-2.628,24.88-2.628
		c21.538,0,39.548,6.007,53.659,17.875C183.018,280.689,170.203,286.735,156.6,286.735z"/>
	<path d="M361.903,238.591c-0.708-0.24-17.587-5.893-39.831-5.893c-29.925,0-55.528,10.243-74.04,29.621
		c-3.079,3.222-3.653,8.092-1.41,11.943c11.672,20.03,33.428,32.473,56.777,32.473c4.458,0,8.95-0.457,13.35-1.357
		c27.829-5.696,48.674-28.274,51.869-56.181C369.154,244.521,366.358,240.106,361.903,238.591z M268.413,270.573
		c14.111-11.868,32.121-17.875,53.659-17.875c10.024,0,18.828,1.365,24.875,2.643c-4.866,15.299-17.783,27.081-34.208,30.443
		c-3.083,0.631-6.225,0.951-9.339,0.951C289.797,286.735,276.982,280.689,268.413,270.573z"/>
	<path style="fill:#FFFFFF;" d="M70.483,174.131L20,117.249v18.308l26.355,25.985c3.933,3.878,3.978,10.209,0.1,14.142
		c-1.957,1.985-4.539,2.979-7.122,2.979c-2.536,0-5.072-0.958-7.021-2.879L20,163.643v20.28l32.793,27.713
		C57.492,198.431,63.412,185.879,70.483,174.131z"/>
	<path style="fill:#FFFFFF;" d="M440,163.643l-12.313,12.14c-1.948,1.92-4.485,2.879-7.021,2.879c-2.583,0-5.165-0.994-7.122-2.979
		c-3.877-3.933-3.833-10.264,0.1-14.142L440,135.557v-18.308l-50.483,56.883c7.072,11.748,12.991,24.3,17.69,37.505L440,183.924
		V163.643z"/>
	<path d="M453.55,81.567c-3.88-1.474-8.272-0.396-11.03,2.711l-64.564,72.748c-4.751-6.322-9.867-12.35-15.356-18.037
		c-17.534-18.166-38.016-32.361-60.876-42.193C278.853,86.96,254.721,81.972,230,81.972s-48.853,4.988-71.724,14.824
		c-22.861,9.832-43.342,24.028-60.876,42.193c-5.489,5.687-10.604,11.715-15.356,18.037L17.479,84.278
		c-2.757-3.106-7.146-4.185-11.03-2.711C2.567,83.042,0,86.763,0,90.916v97.65c0,2.944,1.297,5.738,3.545,7.638l43.036,36.368
		c-4.635,18.639-7.032,38.305-7.032,58.608c0,25.622,3.668,51.657,10.902,77.381c1.031,3.665,4.053,6.427,7.796,7.124
		c12.116,2.256,23.766,3.4,34.626,3.4c42.61,0,68.875-17.529,89.98-31.614c16.603-11.08,29.716-19.831,47.146-19.831
		s30.546,8.752,47.151,19.832c21.106,14.083,47.374,31.61,89.974,31.613c0.004,0,0.006,0,0.01,0c10.854,0,22.502-1.144,34.617-3.4
		c3.743-0.697,6.765-3.459,7.796-7.124c7.234-25.724,10.902-51.759,10.902-77.381c0-20.302-2.397-39.969-7.032-58.608l43.036-36.368
		c2.249-1.9,3.545-4.694,3.545-7.638v-97.65C460,86.763,457.433,83.042,453.55,81.567z M367.136,359.084c-0.003,0-0.006,0-0.009,0
		c-36.541-0.002-58.062-14.362-78.875-28.249C270.375,318.907,253.49,307.64,230,307.64c-23.491,0-40.373,11.267-58.248,23.195
		c-20.811,13.888-42.33,28.249-78.878,28.249c-7.806,0-16.126-0.676-24.805-2.013c-5.655-21.974-8.519-44.108-8.519-65.892
		c0-20.913,2.548-40.183,7.176-57.771c0.282-0.565,0.529-1.15,0.701-1.771c5.345-19.191,13.378-37.042,23.875-53.054
		c0.489-0.745,0.862-1.538,1.131-2.355c33.049-48.724,86.302-74.256,137.566-74.256s104.517,25.533,137.566,74.256
		c0.269,0.817,0.643,1.609,1.131,2.355c10.497,16.013,18.53,33.863,23.875,53.054c0.173,0.62,0.42,1.206,0.701,1.771
		c4.628,17.588,7.176,36.858,7.176,57.771c0,21.783-2.864,43.918-8.519,65.892C383.253,358.408,374.937,359.084,367.136,359.084z
		 M20,163.643l12.313,12.14c1.948,1.921,4.485,2.879,7.021,2.879c2.583,0,5.165-0.995,7.122-2.979
		c3.877-3.933,3.833-10.264-0.1-14.142L20,135.557v-18.308l50.483,56.883c-7.072,11.748-12.991,24.3-17.69,37.505L20,183.924
		V163.643z M389.517,174.131L440,117.249v18.308l-26.355,25.985c-3.933,3.878-3.978,10.209-0.1,14.142
		c1.957,1.985,4.538,2.979,7.122,2.979c2.535,0,5.072-0.958,7.021-2.879L440,163.643v20.28l-32.793,27.713
		C402.508,198.431,396.588,185.879,389.517,174.131z"/>
	<path style="fill:#FFFFFF;" d="M254.083,210.132c1.534,3.965,5.318,6.394,9.329,6.394c1.2,0,2.42-0.218,3.606-0.677
		c5.15-1.993,7.71-7.784,5.717-12.935l-25.402-65.649c-1.491-3.852-5.196-6.391-9.326-6.391h-16.013
		c-4.13,0-7.835,2.539-9.326,6.391l-25.402,65.649c-1.993,5.151,0.567,10.942,5.717,12.935c5.15,1.993,10.942-0.567,12.935-5.718
		l8.237-21.288h31.69L254.083,210.132z M221.894,168.843l6.953-17.969h2.307l6.953,17.969H221.894z"/>
</g>
<g>
</g>
<g>
</g>
<g>
</g>
<g>
</g>
<g>
</g>
<g>
</g>
<g>
</g>
<g>
</g>
<g>
</g>
<g>
</g>
<g>
</g>
<g>
</g>
<g>
</g>
<g>
</g>
<g>
</g>
</svg>
