<?xml version="1.0" encoding="iso-8859-1"?>
<!-- Generator: Adobe Illustrator 17.1.0, SVG Export Plug-In . SVG Version: 6.00 Build 0)  -->
<!DOCTYPE svg PUBLIC "-//W3C//DTD SVG 1.1//EN" "http://www.w3.org/Graphics/SVG/1.1/DTD/svg11.dtd">
<svg version="1.1" id="Capa_1" xmlns="http://www.w3.org/2000/svg" xmlns:xlink="http://www.w3.org/1999/xlink" x="0px" y="0px"
	 viewBox="0 0 460 460" style="enable-background:new 0 0 460 460;" xml:space="preserve">
<g>
	<path style="fill:#FFFFFF;" d="M111.413,240c-4.333,0-8.173-2.791-9.511-6.912c-1.338-4.121,0.13-8.635,3.637-11.181L329.47,59.342
		c-5.254-3.069-10.655-5.913-16.204-8.496c-2.156,4.957-7.876,7.322-12.914,5.282C278.004,47.076,254.334,42.487,230,42.487
		C126.605,42.487,42.487,126.605,42.487,230c0,41.95,13.54,81.61,39.154,114.693c3.328,4.297,2.599,10.442-1.587,13.859
		c3.401,3.963,6.954,7.792,10.654,11.474L184.167,240H111.413z"/>
	<path style="fill:#FFFFFF;" d="M159.654,403.874c22.347,9.05,46.015,13.639,70.346,13.639
		c103.395,0,187.513-84.118,187.513-187.513c0-41.947-13.538-81.605-39.15-114.688c-3.326-4.296-2.598-10.44,1.585-13.857
		c-3.402-3.965-6.962-7.789-10.664-11.471L275.833,220h72.754c4.333,0,8.173,2.791,9.511,6.912c1.338,4.121-0.13,8.635-3.637,11.181
		L130.528,400.66c5.256,3.07,10.667,5.901,16.217,8.485C148.905,404.196,154.619,401.836,159.654,403.874z"/>
	<path d="M81.641,344.693C56.026,311.61,42.487,271.95,42.487,230c0-103.395,84.118-187.513,187.513-187.513
		c24.334,0,48.004,4.589,70.352,13.641c5.038,2.04,10.758-0.325,12.914-5.282c0.034-0.079,0.076-0.152,0.108-0.233
		c2.073-5.119-0.396-10.949-5.515-13.022C283.115,27.568,256.92,22.487,230,22.487c-114.423,0-207.513,93.09-207.513,207.513
		c0,46.423,14.987,90.317,43.341,126.937c1.971,2.545,4.926,3.878,7.914,3.878c2.138,0,4.293-0.683,6.115-2.094
		c0.07-0.054,0.13-0.115,0.198-0.17C84.24,355.135,84.969,348.99,81.641,344.693z"/>
	<path d="M394.177,103.069c-3.382-4.368-9.662-5.167-14.029-1.786c-0.07,0.054-0.132,0.116-0.2,0.172
		c-4.184,3.417-4.912,9.561-1.585,13.857c25.612,33.082,39.15,72.74,39.15,114.688c0,103.395-84.118,187.513-187.513,187.513
		c-24.332,0-48-4.589-70.346-13.639c-5.035-2.038-10.749,0.322-12.909,5.271c-0.036,0.083-0.079,0.16-0.113,0.244
		c-2.073,5.119,0.396,10.949,5.515,13.022c24.743,10.021,50.937,15.102,77.854,15.102c114.423,0,207.513-93.09,207.513-207.513
		C437.513,183.58,422.528,139.688,394.177,103.069z"/>
	<path style="fill:#FCC324;" d="M89.868,405.463L317.79,240h-61.46c-3.751,0-7.187-2.099-8.898-5.438
		c-1.711-3.338-1.411-7.353,0.778-10.399L370.132,54.537L142.21,220h61.46c3.751,0,7.187,2.099,8.898,5.438
		c1.711,3.338,1.411,7.353-0.778,10.399L89.868,405.463z"/>
	<path d="M358.098,226.912c-1.338-4.121-5.178-6.912-9.511-6.912h-72.754l93.451-130.016l53.295-74.148
		c2.865-3.986,2.413-9.461-1.066-12.924c-3.479-3.462-8.956-3.888-12.929-1.004L329.47,59.342L105.539,221.908
		c-3.507,2.545-4.975,7.06-3.637,11.181c1.338,4.121,5.178,6.912,9.511,6.912h72.754L90.709,370.026L37.42,444.164
		c-2.865,3.986-2.413,9.461,1.066,12.924c1.935,1.926,4.488,2.912,7.057,2.912c2.05,0,4.109-0.628,5.872-1.908l79.112-57.433
		l223.934-162.567C357.968,235.547,359.436,231.033,358.098,226.912z M212.568,225.438c-1.711-3.338-5.147-5.438-8.898-5.438h-61.46
		L370.132,54.537L248.21,224.164c-2.189,3.046-2.49,7.061-0.778,10.399c1.711,3.338,5.147,5.438,8.898,5.438h61.46L89.868,405.463
		L211.79,235.837C213.98,232.791,214.28,228.775,212.568,225.438z"/>
</g>
<g>
</g>
<g>
</g>
<g>
</g>
<g>
</g>
<g>
</g>
<g>
</g>
<g>
</g>
<g>
</g>
<g>
</g>
<g>
</g>
<g>
</g>
<g>
</g>
<g>
</g>
<g>
</g>
<g>
</g>
</svg>
