<?xml version="1.0" encoding="iso-8859-1"?>
<!-- Generator: Adobe Illustrator 17.1.0, SVG Export Plug-In . SVG Version: 6.00 Build 0)  -->
<!DOCTYPE svg PUBLIC "-//W3C//DTD SVG 1.1//EN" "http://www.w3.org/Graphics/SVG/1.1/DTD/svg11.dtd">
<svg version="1.1" id="Capa_1" xmlns="http://www.w3.org/2000/svg" xmlns:xlink="http://www.w3.org/1999/xlink" x="0px" y="0px"
	 viewBox="0 0 460 460" style="enable-background:new 0 0 460 460;" xml:space="preserve">
<g>
	<path style="fill:#A1CE57;" d="M68.849,62h95.263c4.766,0,8.869,3.363,9.805,8.035c0.937,4.673-1.555,9.357-5.952,11.193
		C107.754,106.367,68.849,164.763,68.849,230c0,65.237,38.904,123.633,99.114,148.771c4.397,1.836,6.889,6.52,5.952,11.193
		c-0.936,4.673-5.039,8.035-9.805,8.035H68.849v42h322.303v-42H295.89c-4.766,0-8.869-3.363-9.805-8.035
		c-0.937-4.673,1.555-9.356,5.952-11.193c60.21-25.138,99.114-83.535,99.114-148.771c0-65.237-38.905-123.633-99.115-148.771
		c-4.397-1.836-6.889-6.52-5.952-11.193c0.936-4.673,5.039-8.035,9.805-8.035h95.263V20H68.849V62z M349.15,230
		c0,65.7-53.45,119.151-119.15,119.151S110.85,295.7,110.85,230S164.3,110.849,230,110.849S349.15,164.3,349.15,230z"/>
	<path d="M411.151,72V10c0-5.523-4.478-10-10-10H58.849c-5.522,0-10,4.477-10,10v62c0,5.523,4.478,10,10,10h66.581
		c-47.474,33.465-76.581,88.172-76.581,148c0,59.827,29.107,114.535,76.58,148h-66.58c-5.522,0-10,4.477-10,10v62
		c0,5.523,4.478,10,10,10h342.303c5.522,0,10-4.477,10-10v-62c0-5.523-4.478-10-10-10h-66.58c47.473-33.465,76.58-88.173,76.58-148
		c0-59.827-29.107-114.535-76.581-148h66.581C406.674,82,411.151,77.523,411.151,72z M391.151,62h-95.263
		c-4.766,0-8.869,3.363-9.805,8.035c-0.937,4.673,1.555,9.357,5.952,11.193c60.21,25.138,99.115,83.534,99.115,148.771
		c0,65.237-38.904,123.633-99.114,148.771c-4.397,1.836-6.889,6.52-5.952,11.193c0.936,4.673,5.039,8.035,9.805,8.035h95.262v42
		H68.849v-42h95.262c4.766,0,8.869-3.363,9.805-8.035c0.937-4.673-1.555-9.356-5.952-11.193
		C107.753,353.633,68.849,295.237,68.849,230c0-65.237,38.905-123.633,99.115-148.771c4.397-1.836,6.889-6.52,5.952-11.193
		C172.98,65.363,168.877,62,164.111,62H68.849V20h322.303V62z"/>
	<path d="M110.85,230c0,65.7,53.45,119.151,119.15,119.151S349.15,295.7,349.15,230S295.7,110.849,230,110.849
		S110.85,164.3,110.85,230z M230,130.849c54.672,0,99.15,44.479,99.15,99.151s-44.479,99.151-99.15,99.151
		S130.85,284.672,130.85,230S175.328,130.849,230,130.849z"/>
</g>
<g>
</g>
<g>
</g>
<g>
</g>
<g>
</g>
<g>
</g>
<g>
</g>
<g>
</g>
<g>
</g>
<g>
</g>
<g>
</g>
<g>
</g>
<g>
</g>
<g>
</g>
<g>
</g>
<g>
</g>
</svg>
