<?xml version="1.0" encoding="iso-8859-1"?>
<!-- Generator: Adobe Illustrator 17.1.0, SVG Export Plug-In . SVG Version: 6.00 Build 0)  -->
<!DOCTYPE svg PUBLIC "-//W3C//DTD SVG 1.1//EN" "http://www.w3.org/Graphics/SVG/1.1/DTD/svg11.dtd">
<svg version="1.1" id="Capa_1" xmlns="http://www.w3.org/2000/svg" xmlns:xlink="http://www.w3.org/1999/xlink" x="0px" y="0px"
	 viewBox="0 0 450 450" style="enable-background:new 0 0 450 450;" xml:space="preserve">
<g>
	<path style="fill:#A1CE57;" d="M168.581,41.943c0-12.099-9.844-21.943-21.942-21.943c-12.1,0-21.943,9.844-21.943,21.943v55.188
		h43.886V41.943z M149.534,66.001h-5.791c-5.522,0-10-4.477-10-10s4.478-10,10-10h5.791c5.522,0,10,4.477,10,10
		S155.056,66.001,149.534,66.001z"/>
	<path style="fill:#A1CE57;" d="M360.237,41.943c0-12.099-9.844-21.943-21.942-21.943s-21.942,9.844-21.942,21.943v81.594
		c0,12.099,9.844,21.943,21.942,21.943s21.942-9.844,21.942-21.943v-16.406V41.943z M341.19,95.049h-5.791c-5.522,0-10-4.477-10-10
		s4.478-10,10-10h5.791c5.522,0,10,4.477,10,10S346.712,95.049,341.19,95.049z M341.19,66.001h-5.791c-5.522,0-10-4.477-10-10
		s4.478-10,10-10h5.791c5.522,0,10,4.477,10,10S346.712,66.001,341.19,66.001z"/>
	<path style="fill:#A1CE57;" d="M232.466,41.943c0-12.099-9.844-21.943-21.943-21.943c-12.099,0-21.942,9.844-21.942,21.943v55.188
		h13.106h30.779V41.943z M213.418,66.001h-5.79c-5.522,0-10-4.477-10-10s4.478-10,10-10h5.79c5.522,0,10,4.477,10,10
		S218.941,66.001,213.418,66.001z"/>
	<path style="fill:#A1CE57;" d="M282.692,369.391c-5.522,0-10-4.477-10-10s4.478-10,10-10c42.759,0,77.545-34.787,77.545-77.545
		V159.264c-6.388,3.938-13.903,6.216-21.942,6.216c-12.784,0-24.243-5.756-31.942-14.805c-6.562,7.712-15.857,13.022-26.376,14.424
		c-7.637,16.165-24.094,27.38-43.127,27.38H188.38v25.211c27.851,3.934,50.59,13.007,67.693,27.023
		c23.951,19.628,36.096,48.229,36.096,85.006c0,5.523-4.478,10-10,10s-10-4.477-10-10c0-55.662-31.885-87.02-94.768-93.202
		c-5.119-0.503-9.021-4.808-9.021-9.952v-34.086h-20c-5.522,0-10-4.477-10-10s4.478-10,10-10h88.469
		c15.26,0,27.674-12.415,27.674-27.674c0-9.469-4.783-17.839-12.057-22.831v22.461c0,5.523-4.478,10-10,10h-18.715
		c-19.395,0-35.174-15.779-35.174-35.175c0-0.711,0.024-1.421,0.067-2.129h-70.482c-15.659,0-28.399,12.74-28.399,28.4v126.315
		c0,42.758,34.786,77.545,77.545,77.545c5.522,0,10,4.477,10,10s-4.478,10-10,10c-7.188,0-14.193-0.789-20.942-2.271V440H160
		v-40.609c0-5.523,4.478-10,10-10s10,4.477,10,10V440h153.635v-85.001C318.798,364.122,301.349,369.391,282.692,369.391z"/>
	<path style="fill:#A1CE57;" d="M274.409,20c-12.099,0-21.942,9.844-21.942,21.943v57.829c18.103,6.296,31.27,23.209,32.011,43.252
		c7.046-3.656,11.874-11.015,11.874-19.486V41.943C296.352,29.844,286.508,20,274.409,20z M277.304,66.001h-5.791
		c-5.522,0-10-4.477-10-10s4.478-10,10-10h5.791c5.522,0,10,4.477,10,10S282.827,66.001,277.304,66.001z"/>
	<path d="M170,389.391c-5.522,0-10,4.477-10,10V440c0,5.523,4.478,10,10,10s10-4.477,10-10v-40.609
		C180,393.868,175.522,389.391,170,389.391z"/>
	<path d="M338.294,0c-12.784,0-24.243,5.756-31.942,14.805C298.653,5.756,287.193,0,274.409,0c-12.784,0-24.243,5.756-31.942,14.805
		C234.767,5.756,223.308,0,210.523,0c-12.784,0-24.243,5.756-31.942,14.805C170.881,5.756,159.422,0,146.638,0
		c-23.128,0-41.943,18.815-41.943,41.943v57.109c-20.153,5.85-34.932,24.465-34.932,46.479v126.315
		c0,39.172,23.213,73.019,56.603,88.524V440c0,5.523,4.478,10,10,10s10-4.477,10-10v-72.88c6.749,1.482,13.755,2.271,20.942,2.271
		c5.522,0,10-4.477,10-10s-4.478-10-10-10c-42.759,0-77.545-34.787-77.545-77.545V145.531c0-15.66,12.74-28.4,28.399-28.4h70.482
		c-0.043,0.708-0.067,1.418-0.067,2.129c0,19.395,15.779,35.175,35.174,35.175h18.715c5.522,0,10-4.477,10-10v-22.461
		c7.274,4.991,12.057,13.362,12.057,22.831c0,15.26-12.414,27.674-27.674,27.674H148.38c-5.522,0-10,4.477-10,10s4.478,10,10,10h20
		v34.086c0,5.144,3.902,9.449,9.021,9.952c62.883,6.182,94.768,37.54,94.768,93.202c0,5.523,4.478,10,10,10s10-4.477,10-10
		c0-36.777-12.145-65.377-36.096-85.006c-17.104-14.017-39.843-23.089-67.693-27.023v-25.211h48.469
		c19.032,0,35.489-11.215,43.127-27.38c10.519-1.402,19.814-6.712,26.376-14.424c7.699,9.049,19.158,14.805,31.942,14.805
		c8.039,0,15.554-2.278,21.942-6.216v112.582c0,42.758-34.786,77.545-77.545,77.545c-5.522,0-10,4.477-10,10s4.478,10,10,10
		c18.657,0,36.106-5.269,50.942-14.392V440c0,5.523,4.478,10,10,10s10-4.477,10-10V338.722
		c16.483-17.475,26.603-41.015,26.603-66.876V123.537v-16.406V41.943C380.237,18.815,361.421,0,338.294,0z M208.578,119.26
		c0-0.721,0.049-1.431,0.145-2.129h23.744v17.304h-8.715C215.384,134.435,208.578,127.627,208.578,119.26z M188.581,97.131V41.943
		c0-12.099,9.844-21.943,21.942-21.943c12.1,0,21.943,9.844,21.943,21.943v55.188h-30.779H188.581z M124.695,41.943
		c0-12.099,9.844-21.943,21.943-21.943c12.099,0,21.942,9.844,21.942,21.943v55.188h-43.886V41.943z M284.478,143.023
		c-0.741-20.043-13.908-36.955-32.011-43.252V41.943c0-12.099,9.844-21.943,21.942-21.943c12.1,0,21.943,9.844,21.943,21.943v81.594
		C296.352,132.008,291.524,139.367,284.478,143.023z M338.294,145.479c-12.099,0-21.942-9.844-21.942-21.943V41.943
		c0-12.099,9.844-21.943,21.942-21.943s21.942,9.844,21.942,21.943v65.188v16.406C360.237,135.636,350.393,145.479,338.294,145.479z
		"/>
	<path style="fill:#70AD46;" d="M232.466,117.131h-23.744c-0.096,0.698-0.145,1.408-0.145,2.129c0,8.367,6.807,15.175,15.174,15.175
		h8.715V117.131z"/>
	<path d="M149.534,46.001h-5.791c-5.522,0-10,4.477-10,10s4.478,10,10,10h5.791c5.522,0,10-4.477,10-10
		S155.056,46.001,149.534,46.001z"/>
	<path d="M213.418,46.001h-5.79c-5.522,0-10,4.477-10,10s4.478,10,10,10h5.79c5.522,0,10-4.477,10-10S218.941,46.001,213.418,46.001
		z"/>
	<path d="M277.304,46.001h-5.791c-5.522,0-10,4.477-10,10s4.478,10,10,10h5.791c5.522,0,10-4.477,10-10
		S282.827,46.001,277.304,46.001z"/>
	<path d="M341.19,75.049h-5.791c-5.522,0-10,4.477-10,10s4.478,10,10,10h5.791c5.522,0,10-4.477,10-10S346.712,75.049,341.19,75.049
		z"/>
	<path d="M341.19,46.001h-5.791c-5.522,0-10,4.477-10,10s4.478,10,10,10h5.791c5.522,0,10-4.477,10-10S346.712,46.001,341.19,46.001
		z"/>
</g>
<g>
</g>
<g>
</g>
<g>
</g>
<g>
</g>
<g>
</g>
<g>
</g>
<g>
</g>
<g>
</g>
<g>
</g>
<g>
</g>
<g>
</g>
<g>
</g>
<g>
</g>
<g>
</g>
<g>
</g>
</svg>
