<?xml version="1.0" encoding="iso-8859-1"?>
<!-- Generator: Adobe Illustrator 17.1.0, SVG Export Plug-In . SVG Version: 6.00 Build 0)  -->
<!DOCTYPE svg PUBLIC "-//W3C//DTD SVG 1.1//EN" "http://www.w3.org/Graphics/SVG/1.1/DTD/svg11.dtd">
<svg version="1.1" id="Capa_1" xmlns="http://www.w3.org/2000/svg" xmlns:xlink="http://www.w3.org/1999/xlink" x="0px" y="0px"
	 viewBox="0 0 467.289 467.289" style="enable-background:new 0 0 467.289 467.289;" xml:space="preserve">
<g>
	<path style="fill:#FCC324;" d="M152.582,318.229c1.876,1.717,3.027,4.084,3.22,6.62l4.084,53.783l14.399,4.799l5.331-14.969
		c1.419-3.984,5.191-6.645,9.42-6.645h89.219c4.229,0,8.002,2.661,9.421,6.645l5.33,14.969l14.398-4.799l4.084-53.783
		c0.193-2.536,1.345-4.903,3.221-6.62l103.024-94.289C416.172,111.224,354.31,50.482,296.552,30.112v80.177c0,5.523-4.478,10-10,10
		H180.738c-5.523,0-10-4.477-10-10V30.112c-57.758,20.37-119.62,81.112-121.181,193.827L152.582,318.229z M103.714,178.981h20
		h78.419h63.023h78.419h20c5.522,0,10,4.477,10,10s-4.478,10-10,10h-10v29.447c0,5.239-4.044,9.591-9.27,9.973l-78.419,5.742
		c-0.244,0.018-0.488,0.027-0.73,0.027c-2.517,0-4.951-0.95-6.808-2.675c-2.036-1.892-3.192-4.546-3.192-7.325v-35.189h-43.023
		v35.189c0,2.779-1.156,5.433-3.192,7.325c-1.856,1.725-4.292,2.675-6.808,2.675c-0.243,0-0.487-0.009-0.731-0.027l-78.419-5.742
		c-5.226-0.382-9.27-4.734-9.27-9.973v-29.447h-10c-5.523,0-10-4.477-10-10S98.191,178.981,103.714,178.981z"/>
	<path style="fill:#FCC324;" d="M290.034,405.502c-1.048,0.35-2.114,0.516-3.163,0.516c-4.116,0-7.964-2.561-9.42-6.647
		l-6.251-17.554H196.09l-6.251,17.554c-1.826,5.128-7.421,7.853-12.583,6.132l-15.727-5.242l3.571,47.029h137.09l3.571-47.029
		L290.034,405.502z"/>
	<path d="M103.714,198.981h10v29.447c0,5.239,4.044,9.591,9.27,9.973l78.419,5.742c0.244,0.018,0.488,0.027,0.731,0.027
		c2.516,0,4.951-0.95,6.808-2.675c2.036-1.892,3.192-4.546,3.192-7.325v-35.189h43.023v35.189c0,2.779,1.156,5.433,3.192,7.325
		c1.856,1.726,4.291,2.675,6.808,2.675c0.242,0,0.486-0.009,0.73-0.027l78.419-5.742c5.226-0.382,9.27-4.734,9.27-9.973v-29.447h10
		c5.522,0,10-4.477,10-10s-4.478-10-10-10h-20h-78.419h-63.023h-78.419h-20c-5.523,0-10,4.477-10,10S98.191,198.981,103.714,198.981
		z M192.133,198.981v24.43l-58.419-4.277v-20.153H192.133z M333.575,198.981v20.153l-58.419,4.277v-24.43H333.575z"/>
	<polygon style="fill:#ED1B24;" points="145.042,447.289 136.159,330.31 61.192,261.7 123.038,447.289 	"/>
	<polygon style="fill:#ED1B24;" points="331.131,330.31 322.247,447.289 344.251,447.289 406.097,261.7 	"/>
	<path d="M437.517,230.497c0.022-0.1,0.04-0.2,0.059-0.3c0.043-0.223,0.078-0.445,0.105-0.668c0.012-0.098,0.024-0.196,0.033-0.295
		c0.024-0.258,0.037-0.515,0.041-0.772c0.001-0.049,0.008-0.097,0.008-0.146c0-0.03-0.001-0.06-0.001-0.09c0-0.017,0-0.034,0-0.051
		c-0.025-58.344-15.484-110.19-44.712-149.94c-26.075-35.462-63.015-60.782-104.014-71.297C271.085,2.334,252.449,0,233.645,0
		c-18.804,0-37.439,2.334-55.389,6.937c-0.001,0-0.002,0-0.003,0c-41,10.515-77.939,35.835-104.014,71.297
		c-29.228,39.749-44.686,91.594-44.712,149.935c0,0.021,0,0.042,0,0.063c0,0.028-0.001,0.056-0.001,0.083
		c0,0.046,0.007,0.091,0.007,0.136c0.004,0.261,0.017,0.522,0.041,0.784c0.009,0.097,0.021,0.193,0.032,0.289
		c0.027,0.225,0.063,0.449,0.106,0.674c0.019,0.099,0.036,0.198,0.058,0.296c0.054,0.24,0.119,0.479,0.191,0.717
		c0.021,0.07,0.038,0.141,0.06,0.21c0.006,0.018,0.01,0.037,0.016,0.056l76.304,228.974c1.361,4.083,5.183,6.838,9.487,6.838h40
		h0.02h155.609h40c4.305,0,8.126-2.755,9.487-6.838l76.304-228.974c0.006-0.018,0.01-0.037,0.016-0.056
		c0.023-0.07,0.04-0.141,0.061-0.212C437.399,230.973,437.463,230.735,437.517,230.497z M276.552,100.289h-85.814v-75.75
		C204.73,21.525,219.129,20,233.645,20c14.516,0,28.915,1.525,42.907,4.539V100.289z M170.738,30.112v80.177c0,5.523,4.477,10,10,10
		h105.814c5.522,0,10-4.477,10-10V30.112c57.758,20.37,119.62,81.112,121.181,193.828l-103.024,94.289
		c-1.876,1.717-3.027,4.084-3.221,6.62l-4.084,53.783l-14.398,4.799l-5.33-14.969c-1.419-3.984-5.191-6.645-9.421-6.645h-89.219
		c-4.229,0-8.001,2.661-9.42,6.645l-5.331,14.969l-14.399-4.799l-4.084-53.783c-0.192-2.536-1.344-4.903-3.22-6.62L49.556,223.939
		C51.117,111.224,112.98,50.482,170.738,30.112z M165.1,447.289l-3.571-47.029l15.727,5.242c5.162,1.721,10.757-1.004,12.583-6.132
		l6.251-17.554H271.2l6.251,17.554c1.456,4.087,5.304,6.648,9.42,6.647c1.049,0,2.115-0.166,3.163-0.516l15.726-5.242l-3.571,47.029
		H165.1z M61.192,261.7l74.967,68.61l8.883,116.979h-22.004L61.192,261.7z M322.247,447.289l8.884-116.979l74.966-68.609
		l-61.846,185.589H322.247z"/>
	<path style="fill:#ED1B24;" d="M190.738,24.539v75.75h85.814v-75.75C262.56,21.525,248.16,20,233.645,20
		C219.129,20,204.73,21.525,190.738,24.539z"/>
</g>
<g>
</g>
<g>
</g>
<g>
</g>
<g>
</g>
<g>
</g>
<g>
</g>
<g>
</g>
<g>
</g>
<g>
</g>
<g>
</g>
<g>
</g>
<g>
</g>
<g>
</g>
<g>
</g>
<g>
</g>
</svg>
