<?xml version="1.0" encoding="iso-8859-1"?>
<!-- Generator: Adobe Illustrator 17.1.0, SVG Export Plug-In . SVG Version: 6.00 Build 0)  -->
<!DOCTYPE svg PUBLIC "-//W3C//DTD SVG 1.1//EN" "http://www.w3.org/Graphics/SVG/1.1/DTD/svg11.dtd">
<svg version="1.1" id="Capa_1" xmlns="http://www.w3.org/2000/svg" xmlns:xlink="http://www.w3.org/1999/xlink" x="0px" y="0px"
	 viewBox="0 0 460 460" style="enable-background:new 0 0 460 460;" xml:space="preserve">
<g>
	<path style="fill:#ED1B24;" d="M395.918,204.204C395.918,84.559,310.433,20,230,20C149.567,20,64.082,84.559,64.082,204.204
		c0,54.719,19.388,115.156,51.862,161.668C148.834,412.982,190.406,440,230,440c39.594,0,81.166-27.018,114.057-74.127
		C376.531,319.36,395.918,258.923,395.918,204.204z M220.381,264.615c-16.99,22.147-48.67,53.813-50.011,55.15
		c-1.92,1.916-4.477,2.921-7.065,2.921c-1.555,0-3.122-0.362-4.571-1.107c-31.084-15.987-53.042-44.614-63.502-82.784
		c-8.12-29.633-8.917-63.777-2.188-93.677c0.848-3.766,3.787-6.707,7.551-7.558c3.767-0.851,7.684,0.541,10.068,3.576
		c44.925,57.183,107.528,109.167,108.156,109.685C222.966,254.25,223.656,260.346,220.381,264.615z M301.266,321.579
		c-1.448,0.745-3.016,1.107-4.57,1.107c-2.59,0-5.146-1.005-7.065-2.921c-1.341-1.337-33.021-33.003-50.011-55.15
		c-3.274-4.269-2.584-10.365,1.563-13.793c0.628-0.519,63.275-52.559,108.156-109.686c2.384-3.035,6.301-4.427,10.067-3.576
		c3.766,0.851,6.704,3.792,7.552,7.558c6.729,29.9,5.932,64.044-2.188,93.677C354.309,276.966,332.35,305.592,301.266,321.579z"/>
	<path d="M359.451,55.662c-17.117-17.733-37.112-31.592-59.43-41.19C277.694,4.869,254.135,0,230,0s-47.693,4.869-70.022,14.472
		c-22.317,9.598-42.312,23.457-59.429,41.19C64.135,93.387,44.082,146.14,44.082,204.204c0,59.534,20.215,122.633,55.463,173.117
		C136.229,429.865,183.779,460,230,460s93.771-30.135,130.455-82.678c35.247-50.485,55.463-113.583,55.463-173.117
		C415.918,146.14,395.865,93.387,359.451,55.662z M230,440c-39.594,0-81.166-27.018-114.057-74.127
		C83.469,319.36,64.082,258.923,64.082,204.204C64.082,84.559,149.567,20,230,20c80.433,0,165.918,64.559,165.918,184.204
		c0,54.719-19.388,115.156-51.861,161.668C311.166,412.982,269.594,440,230,440z"/>
	<path style="fill:#E5E5E5;" d="M109.279,170.969c-3.829,43.571,6.937,101.518,52.268,129.264
		c8.332-8.52,24.793-25.668,37.018-40.373C182.511,246.004,143.778,211.346,109.279,170.969z"/>
	<path d="M218.818,250.821c-0.627-0.518-63.23-52.502-108.156-109.685c-2.384-3.035-6.301-4.427-10.068-3.576
		c-3.765,0.851-6.704,3.792-7.551,7.558c-6.729,29.899-5.932,64.043,2.188,93.677c10.46,38.171,32.418,66.797,63.502,82.784
		c1.449,0.745,3.016,1.107,4.571,1.107c2.589,0,5.145-1.005,7.065-2.921c1.34-1.337,33.021-33.003,50.011-55.15
		C223.656,260.346,222.966,254.25,218.818,250.821z M109.279,170.969c34.499,40.377,73.232,75.035,89.286,88.892
		c-12.225,14.705-28.687,31.853-37.018,40.373C116.215,272.487,105.449,214.54,109.279,170.969z"/>
	<path style="fill:#E5E5E5;" d="M350.722,170.969c-34.502,40.38-73.235,75.037-89.285,88.891
		c12.227,14.71,28.688,31.855,37.017,40.373C343.784,272.488,354.55,214.541,350.722,170.969z"/>
	<path d="M366.957,145.118c-0.848-3.766-3.786-6.707-7.552-7.558c-3.767-0.851-7.684,0.541-10.067,3.576
		c-44.881,57.127-107.528,109.167-108.156,109.686c-4.146,3.429-4.837,9.524-1.563,13.793c16.99,22.147,48.67,53.813,50.011,55.15
		c1.92,1.916,4.476,2.921,7.065,2.921c1.555,0,3.122-0.362,4.57-1.107c31.084-15.987,53.043-44.614,63.503-82.784
		C372.889,209.162,373.687,175.018,366.957,145.118z M298.453,300.234c-8.329-8.518-24.79-25.663-37.017-40.373
		c16.05-13.854,54.783-48.511,89.285-88.891C354.55,214.541,343.784,272.488,298.453,300.234z"/>
</g>
<g>
</g>
<g>
</g>
<g>
</g>
<g>
</g>
<g>
</g>
<g>
</g>
<g>
</g>
<g>
</g>
<g>
</g>
<g>
</g>
<g>
</g>
<g>
</g>
<g>
</g>
<g>
</g>
<g>
</g>
</svg>
