<?xml version="1.0" ?><!DOCTYPE svg  PUBLIC '-//W3C//DTD SVG 1.1//EN'  'http://www.w3.org/Graphics/SVG/1.1/DTD/svg11.dtd'><svg enable-background="new 0 0 256 256" height="256px" id="Layer_1" version="1.1" viewBox="0 0 256 256" width="256px" xml:space="preserve" xmlns="http://www.w3.org/2000/svg" xmlns:xlink="http://www.w3.org/1999/xlink"><g><g><path d="M128,247.322C62.1,247.322,8.678,193.9,8.678,128C8.678,194.274,62.1,248,128,248    s119.322-53.726,119.322-120C247.322,193.9,193.9,247.322,128,247.322z" fill="#B71C1C" opacity="0.2"/><path d="M128,8.678C193.9,8.678,247.322,62.1,247.322,128C247.322,61.726,193.9,8,128,8    S8.678,61.726,8.678,128C8.678,62.1,62.1,8.678,128,8.678z" fill="#FFFFFF" opacity="0.2"/><circle cx="128" cy="128" fill="#F44336" r="119.322"/></g><linearGradient gradientUnits="userSpaceOnUse" id="SVGID_1_" x1="79.2574" x2="219.4357" y1="65.1238" y2="205.3021"><stop offset="0" style="stop-color:#212121;stop-opacity:0.2"/><stop offset="1" style="stop-color:#212121;stop-opacity:0"/></linearGradient><path d="M247.056,135.892l-47.589-47.589v0l-3.175-3.175l-0.183,16.886L175.64,80.851h-18.172   c0.492,0.273,25.785,25.614,26.002,25.739c-3.147,0.028-6.717,0.053-10.512,0.068c-0.171-0.173-12.859-12.865-13.217-13.209   c-0.347-0.374-0.71-0.725-1.075-1.074c-11.927-12.806-34.254-11.22-36.081-11.22c-19.095,0.409-28.704,4.672-33.529,9.12   c-0.385-0.385-7.454-9.296-7.682-9.524c-4.947,0-16.856,0-16.856,0L38.69,105.692c1.501,1.996,12.21,16.209,14.941,18.967   c0.004-0.031,0.013-0.063,0.018-0.094c0.407,0.471,9.118,11.059,10.052,11.993c0.65,0.82,3.651,4.605,7.353,9.167   c5.099,6.219,11.512,13.875,14.895,17.257c0.006-0.005,0.013-0.01,0.019-0.015c0.368,0.389,11.15,12.288,12.468,13.607   c6.215,6.424,29.378,34.135,29.378,34.135l0.087-0.102c1.371,1.371,32.097,32.165,32.236,32.331   C207.99,229.587,243.707,187.157,247.056,135.892z" fill="url(#SVGID_1_)"/><g><g><path d="M64.518,80.75c0,0,11.909,0,16.856,0c0.345-0.236,0.689-0.463,1.031-0.678     c-4.032,0-17.887,0-17.887,0l-26.009,25.378c0,0,0.067,0.089,0.181,0.241L64.518,80.75z" fill="#BF360C" opacity="0.2"/><path d="M38.69,105.692c1.501,1.996,12.21,16.209,14.941,18.967c2.35-15.86,16.033-35.918,27.744-43.909     c-4.947,0-16.856,0-16.856,0L38.69,105.692z" fill="#FFEB3B"/></g><g><path d="M175.64,80.851c0,0,0.24,0.777,0.281,2.022c0.044-1.641-0.281-2.699-0.281-2.699h-19.442     c0,0,0.49,0.243,1.27,0.677H175.64z" fill="#BF360C" opacity="0.2"/><path d="M157.468,80.851c2.921,1.622,10.163,6.065,13.334,11.852c4.147-3.588,5.053-7.37,5.12-9.83     c-0.041-1.245-0.281-2.022-0.281-2.022H157.468z" fill="#FFEB3B"/></g><g><path d="M122.585,81.153c2.333,0,38.107-2.592,42.946,25.52c16.072,0,30.531-0.23,30.531-0.23     l0.23-21.314l21.013,21.013l0.186-0.224l-21.199-21.42l-0.23,21.537c0,0-14.459,0.233-30.531,0.233     c-4.839-28.405-40.612-25.786-42.946-25.786c-37.829,0.818-38.434,16.932-38.358,19.496     C84.3,96.385,86.596,81.924,122.585,81.153z" fill="#BF360C" opacity="0.2"/><path d="M196.062,106.443c0,0-14.459,0.23-30.531,0.23c-4.839-28.112-40.612-25.52-42.946-25.52     C86.596,81.924,84.3,96.385,84.227,99.976c0.005,0.171,0.013,0.282,0.014,0.324c0.526,16.327,36.499,15.047,38.661,15.047     c63.137-4.424,68.437,22.06,68.437,22.06l25.967-31.266l-21.013-21.013L196.062,106.443z" fill="#FFEB3B"/></g><path d="M85.947,162.983c19.615-16.159,38.798,1.815,38.366,4.349c24.342,1.18,46.354,0.835,47.175-12.431    c0.053-5.613-6.396-7.884-17.746-9.176c-18.901-2.13-51.384-1.58-90.042-9.166c0.65,0.82,3.651,4.605,7.353,9.167    C76.151,151.944,82.565,159.601,85.947,162.983z" fill="#FFEB3B"/><path d="M155.693,177.873c-3.123,1.004-25.457,7.479-57.258-1.299c6.215,6.424,29.378,34.135,29.378,34.135    L155.693,177.873z" fill="#FFEB3B"/></g></g></svg>