<?xml version="1.0" encoding="iso-8859-1"?>
<!-- Generator: Adobe Illustrator 17.1.0, SVG Export Plug-In . SVG Version: 6.00 Build 0)  -->
<!DOCTYPE svg PUBLIC "-//W3C//DTD SVG 1.1//EN" "http://www.w3.org/Graphics/SVG/1.1/DTD/svg11.dtd">
<svg version="1.1" id="Capa_1" xmlns="http://www.w3.org/2000/svg" xmlns:xlink="http://www.w3.org/1999/xlink" x="0px" y="0px"
	 viewBox="0 0 442 442" style="enable-background:new 0 0 442 442;" xml:space="preserve">
<g>
	<g>
		<polygon style="fill:#F8A71B;" points="23.194,143.434 92.055,63.434 349.945,63.434 418.806,143.434 221,373.237 		"/>
		<path d="M221,383.237c-2.912,0-5.679-1.27-7.579-3.476L15.615,149.958c-3.228-3.75-3.228-9.297,0-13.048l68.861-80
			c1.9-2.207,4.667-3.476,7.579-3.476h257.89c2.912,0,5.679,1.269,7.579,3.476l68.861,80c3.228,3.75,3.228,9.297,0,13.048
			L228.579,379.761C226.679,381.968,223.912,383.237,221,383.237z M36.389,143.434L221,357.909l184.611-214.475l-60.253-70H96.642
			L36.389,143.434z"/>
	</g>
	<g>
		<path style="fill:#FF0000;" d="M354.532,53.434H87.468l-77.468,90l211,245.132l211-245.132L354.532,53.434z M379.223,143.434
			l-73.698,85.62c0.937-6.716,0.478-13.664-1.441-20.591c-8.327-30.043-41.366-39.67-73.318-48.979l-8.492-2.478
			c-21.177-6.168-50.181-14.617-53.172-25.409c-1.289-4.651-0.544-8.46,2.416-12.352c5.44-7.154,20.187-15.507,43.842-15.507
			c28.893,0,58.141,9.116,58.141,26.538c0,11.046,8.954,20,20,20s20-8.954,20-20c0-13.899-4.827-26.473-13.899-36.842h36.584
			L379.223,143.434z M105.816,93.434h35.127c-0.43,0.527-0.854,1.058-1.264,1.597c-10.502,13.809-13.742,30.589-9.125,47.25
			c8.946,32.277,46.979,43.355,80.533,53.129l8.489,2.477c19.42,5.658,43.589,12.7,45.961,21.26
			c0.979,3.533,0.436,6.305-1.819,9.269c-4.591,6.037-17.209,13.087-37.66,13.087c-29.609,0-47.42-9.408-49.711-18.701
			c-2.644-10.725-13.482-17.276-24.206-14.631c-9.843,2.427-16.148,11.757-15.077,21.565l-74.285-86.302L105.816,93.434z
			 M172.827,271.285c14.466,6.605,32.58,10.217,53.23,10.217c14.989,0,29.015-2.739,41.005-7.764L221,327.251L172.827,271.285z"/>
		<path d="M221,398.566c-2.912,0-5.679-1.27-7.579-3.477l-211-245.132c-3.228-3.75-3.228-9.297,0-13.048l77.468-90
			c1.9-2.207,4.667-3.476,7.579-3.476h267.063c2.912,0,5.679,1.269,7.579,3.476l77.468,90c3.228,3.75,3.228,9.297,0,13.048
			l-211,245.132C226.679,397.297,223.912,398.566,221,398.566z M23.194,143.434L221,373.238l197.806-229.804l-68.861-80H92.055
			L23.194,143.434z M221,337.251c-2.912,0-5.679-1.269-7.579-3.476l-48.173-55.966c-3.064-3.561-3.238-8.773-0.417-12.53
			c2.82-3.755,7.875-5.043,12.149-3.091c13.345,6.093,30.315,9.313,49.077,9.313c13.391,0,26.233-2.416,37.14-6.986
			c4.279-1.792,9.228-0.409,11.955,3.344c2.727,3.752,2.516,8.887-0.51,12.403l-46.062,53.513
			C226.679,335.982,223.912,337.251,221,337.251z M201.966,289.81L221,311.922l18.15-21.086c-4.302,0.442-8.679,0.666-13.093,0.666
			C217.724,291.502,209.652,290.93,201.966,289.81z M226.057,251.502c-32.156,0-55.48-10.326-59.421-26.307
			c-1.104-4.481-5.09-7.611-9.693-7.611c-0.804,0-1.614,0.099-2.409,0.295c-4.834,1.192-8.071,5.823-7.531,10.771
			c0.476,4.355-1.939,8.513-5.958,10.258c-4.019,1.744-8.704,0.672-11.563-2.648l-74.285-86.302c-3.228-3.75-3.228-9.297,0-13.048
			l43.038-50c1.9-2.207,4.667-3.476,7.579-3.476h35.127c3.862,0,7.378,2.223,9.034,5.712c1.656,3.489,1.155,7.619-1.287,10.611
			c-0.358,0.438-0.711,0.879-1.052,1.328c-8.566,11.264-11.211,24.946-7.447,38.526c7.458,26.905,42.646,37.155,73.691,46.198
			l8.495,2.479c30.447,8.871,49.196,15.196,52.796,28.189c1.806,6.515,0.63,12.569-3.498,17.994
			C265.415,242.703,250.143,251.502,226.057,251.502z M156.943,197.583c13.828,0,25.799,9.385,29.112,22.824
			c1,2.811,12.817,11.095,40.002,11.095c16.691,0,26.906-5.466,29.7-9.14c0.022-0.029,0.042-0.056,0.062-0.083
			c-1.106-0.97-4.333-3.224-12.992-6.508c-7.899-2.996-17.542-5.805-26.049-8.284l-8.493-2.478
			c-34.274-9.983-76.934-22.41-87.369-60.057c-3.942-14.225-3.052-28.521,2.405-41.518h-12.92l-34.431,40l56.974,66.191
			c4.034-5.395,9.871-9.456,16.8-11.164C152.106,197.879,154.527,197.583,156.943,197.583z M305.522,239.054
			c-1.389,0-2.791-0.29-4.116-0.889c-4.042-1.828-6.397-6.1-5.785-10.493c0.757-5.431,0.362-10.995-1.174-16.54
			c-6.838-24.672-35.808-33.112-66.479-42.049l-8.496-2.479c-32.511-9.47-55.849-17.333-60.008-32.337
			c-2.115-7.632-0.738-14.724,4.093-21.076c7.152-9.405,24.517-19.454,51.802-19.454c33.917,0,68.141,11.298,68.141,36.538
			c0,5.514,4.486,10,10,10s10-4.486,10-10c0-11.413-3.844-21.593-11.425-30.258c-2.583-2.953-3.201-7.144-1.58-10.717
			c1.621-3.573,5.182-5.867,9.106-5.867h36.583c2.912,0,5.679,1.269,7.579,3.476l43.038,50c3.228,3.75,3.228,9.297,0,13.048
			l-73.698,85.62C311.159,237.836,308.369,239.054,305.522,239.054z M178.667,128.664c0.436,0.615,3.204,3.869,15.757,8.831
			c9.463,3.74,20.717,7.019,30.645,9.91l8.497,2.479c32.595,9.497,69.495,20.249,79.811,54.718l52.651-61.168l-34.431-40h-13.777
			c3.745,8.338,5.679,17.394,5.679,26.842c0,16.542-13.458,30-30,30s-30-13.458-30-30c0-7.807-20.588-16.538-48.141-16.538
			c-21.428,0-32.842,7.562-35.883,11.561C178.414,126.695,178.315,127.299,178.667,128.664z"/>
	</g>
</g>
<g>
</g>
<g>
</g>
<g>
</g>
<g>
</g>
<g>
</g>
<g>
</g>
<g>
</g>
<g>
</g>
<g>
</g>
<g>
</g>
<g>
</g>
<g>
</g>
<g>
</g>
<g>
</g>
<g>
</g>
</svg>
