<?xml version="1.0" encoding="iso-8859-1"?>
<!-- Generator: Adobe Illustrator 17.1.0, SVG Export Plug-In . SVG Version: 6.00 Build 0)  -->
<!DOCTYPE svg PUBLIC "-//W3C//DTD SVG 1.1//EN" "http://www.w3.org/Graphics/SVG/1.1/DTD/svg11.dtd">
<svg version="1.1" id="Capa_1" xmlns="http://www.w3.org/2000/svg" xmlns:xlink="http://www.w3.org/1999/xlink" x="0px" y="0px"
	 viewBox="0 0 460.006 460.006" style="enable-background:new 0 0 460.006 460.006;" xml:space="preserve">
<g>
	<path style="fill:#CCCCCC;" d="M205.058,343.47c-3.904,3.905-10.236,3.904-14.142,0l-22.083-22.083l-10.878,26.128l90.63,90.63
		l25.903-11.102l-61.375-61.375c-3.905-3.905-3.905-10.237,0-14.143L205.058,343.47L205.058,343.47z"/>
	<polygon style="fill:#CCCCCC;" points="321.39,168.83 419.573,267.013 427.046,274.486 438.148,248.581 347.518,157.951 	"/>
	<path d="M457.078,239.227L356.926,139.076c-2.864-2.864-7.174-3.719-10.915-2.16l-45.983,19.145
		c-0.028,0.011-0.056,0.023-0.084,0.034l-0.032,0.014c-0.019,0.008-0.037,0.02-0.056,0.027c-0.325,0.138-0.642,0.296-0.954,0.469
		c-0.09,0.05-0.176,0.104-0.264,0.156c-0.237,0.142-0.469,0.293-0.696,0.456c-0.098,0.07-0.196,0.141-0.292,0.214
		c-0.209,0.162-0.411,0.336-0.609,0.516c-0.088,0.08-0.178,0.155-0.263,0.238c-0.03,0.029-0.063,0.054-0.093,0.084l-42.549,42.549
		L138.753,85.434l-26.116-26.116c-5.626-5.626-12.745-8.6-20.586-8.6c-5.685,0-11.533,1.648-16.982,4.527
		c-2.545-5.646-5.945-12.69-9.954-19.786C51.637,11.601,38.575,0.003,25.182,0.003c-4.401,0-10.994,1.347-17.412,7.764
		c-8.181,8.182-8.452,16.647-7.237,22.31c2.59,12.078,14.665,23.901,36.915,36.144c6.404,3.523,12.66,6.528,17.775,8.834
		c-0.625,1.183-1.202,2.389-1.713,3.622c-5.239,12.648-3.122,25.025,5.811,33.958l26.116,26.116l52.223,52.223
		c0.003,0.003,0.006,0.007,0.009,0.01c0.002,0.002,0.003,0.003,0.005,0.005l63.146,63.146l-42.462,42.462
		c-0.02,0.02-0.039,0.04-0.059,0.06l-0.028,0.027c-0.035,0.035-0.065,0.074-0.099,0.11c-0.192,0.197-0.38,0.4-0.556,0.615
		c-0.081,0.098-0.151,0.201-0.227,0.301c-0.12,0.158-0.242,0.314-0.354,0.481c-0.114,0.17-0.214,0.347-0.317,0.521
		c-0.062,0.105-0.128,0.206-0.186,0.314c-0.133,0.248-0.251,0.502-0.361,0.758c-0.019,0.043-0.042,0.083-0.06,0.126l-0.014,0.034
		c-0.011,0.026-0.023,0.053-0.033,0.08l-19.144,45.984c-1.557,3.74-0.704,8.05,2.161,10.915L239.23,457.075
		c1.914,1.914,4.473,2.929,7.073,2.929c1.328,0,2.667-0.265,3.938-0.809l45.703-19.587c0.119-0.051,0.228-0.113,0.344-0.168
		c0.165-0.079,0.332-0.154,0.492-0.241c0.16-0.087,0.31-0.184,0.463-0.277c0.124-0.076,0.25-0.149,0.371-0.23
		c0.171-0.116,0.333-0.242,0.496-0.367c0.095-0.073,0.192-0.143,0.285-0.22c0.169-0.141,0.328-0.29,0.486-0.44
		c0.064-0.06,0.132-0.113,0.195-0.176l0.126-0.126c0.005-0.005,0.01-0.01,0.015-0.015l30.004-30.004l12.516,12.517
		c1.875,1.875,4.419,2.929,7.071,2.929s5.195-1.054,7.071-2.929l63.984-63.984c1.875-1.876,2.929-4.419,2.929-7.071
		s-1.054-5.196-2.929-7.071l-12.516-12.516l30.144-30.145c0.018-0.018,0.033-0.038,0.051-0.056c0.069-0.07,0.132-0.147,0.199-0.22
		c0.187-0.201,0.367-0.407,0.536-0.622c0.081-0.104,0.157-0.21,0.234-0.316c0.147-0.203,0.285-0.41,0.416-0.622
		c0.069-0.112,0.137-0.223,0.201-0.337c0.141-0.251,0.268-0.508,0.387-0.769c0.029-0.065,0.068-0.125,0.096-0.19l19.587-45.703
		C460.808,246.479,459.969,242.118,457.078,239.227z M398.649,348.804l-49.842,49.842l-5.445-5.445l49.842-49.842L398.649,348.804z
		 M386.132,322.146l-63.983,63.983l-30.145,30.145l-64.748-64.748c-3.906-3.903-10.237-3.903-14.143,0h0
		c-3.905,3.905-3.905,10.237,0,14.143l61.375,61.375l-25.903,11.102l-90.63-90.63l10.878-26.128l22.083,22.083
		c3.906,3.904,10.238,3.905,14.142,0h0c3.905-3.905,3.905-10.237,0-14.143l-25.574-25.574l42.543-42.543
		c0.002-0.002,0.004-0.004,0.007-0.006c0.002-0.002,0.003-0.004,0.005-0.005l39.169-39.169c0.001-0.001,0.002-0.002,0.003-0.004
		l42.546-42.545l112.521,112.52L386.132,322.146z M98.495,73.46l6.228,6.228c-10.692,4.46-20.359,13.75-25.055,25.008l-6.204-6.204
		c-1.139-1.139-4.606-4.605-1.476-12.162c3.444-8.316,12.82-15.611,20.063-15.611C94.577,70.718,96.625,71.589,98.495,73.46z
		 M239.994,214.959l-24.245,24.245c-4.559-7.188-7.013-15.525-7.013-24.245s2.453-17.057,7.013-24.245L239.994,214.959z
		 M186.923,211.951l-0.001-0.001c-8.575-8.574-13.297-19.976-13.297-32.103c0-8.719,2.453-17.056,7.013-24.244l20.721,20.721
		c-7.965,10.833-12.357,23.808-12.595,37.468L186.923,211.951z M99.785,124.814c-0.157-0.166-0.313-0.332-0.481-0.486
		c-0.045-0.047-0.094-0.1-0.143-0.151c-0.041-0.044-0.081-0.087-0.124-0.135c-0.058-0.064-0.12-0.138-0.181-0.21
		c-0.04-0.047-0.079-0.091-0.12-0.141c-0.079-0.098-0.159-0.204-0.24-0.313c-0.024-0.032-0.048-0.061-0.073-0.095
		c-0.105-0.146-0.21-0.301-0.314-0.467c-0.028-0.044-0.054-0.095-0.082-0.141c-0.075-0.124-0.149-0.251-0.22-0.387
		c-0.038-0.071-0.073-0.15-0.109-0.225c-0.059-0.12-0.117-0.24-0.172-0.368c-0.037-0.088-0.071-0.182-0.106-0.272
		c-0.049-0.127-0.098-0.254-0.142-0.389c-0.034-0.102-0.063-0.209-0.094-0.314c-0.039-0.136-0.077-0.272-0.11-0.415
		c-0.027-0.115-0.05-0.235-0.073-0.355c-0.028-0.146-0.053-0.294-0.074-0.446c-0.018-0.128-0.033-0.26-0.046-0.394
		c-0.015-0.157-0.026-0.319-0.034-0.483c-0.007-0.142-0.012-0.284-0.012-0.431c-0.001-0.17,0.005-0.348,0.012-0.525
		c0.007-0.153,0.013-0.306,0.026-0.465c0.015-0.185,0.041-0.378,0.066-0.571c0.021-0.165,0.041-0.328,0.07-0.498
		c0.035-0.204,0.083-0.418,0.129-0.631c0.037-0.172,0.07-0.341,0.115-0.519c0.059-0.233,0.136-0.479,0.21-0.723
		c0.052-0.171,0.094-0.336,0.154-0.512c0.112-0.335,0.247-0.684,0.387-1.036c0.036-0.092,0.063-0.178,0.102-0.271
		c3.445-8.316,12.82-15.612,20.063-15.612c2.526,0,4.574,0.871,6.444,2.742l6.527,6.527c-8.161,11.135-12.339,24.287-12.566,37.496
		L99.785,124.814z M145.534,120.5l20.713,20.713c-7.965,10.833-12.356,23.809-12.594,37.469l-1.846-1.847
		C136.54,161.565,134.457,138.038,145.534,120.5z M427.046,274.486l-7.473-7.473L321.39,168.83l26.128-10.879l90.63,90.63
		L427.046,274.486z M20.088,25.882c-0.142-0.661-0.379-1.77,1.825-3.973c1.265-1.266,2.365-1.906,3.269-1.906
		c3.042,0,11.188,5.289,22.418,25.112c1.035,1.826,2.028,3.657,2.975,5.464C35.306,42.489,21.581,32.844,20.088,25.882z"/>
	<path style="fill:#E5E5E5;" d="M416.277,292.001l-112.521-112.52l-42.546,42.545c-0.001,0.002-0.002,0.003-0.003,0.004
		L222.038,261.2c-0.002,0.001-0.003,0.003-0.005,0.005c-0.002,0.002-0.005,0.004-0.007,0.006l-42.543,42.543l25.574,25.574
		c3.905,3.905,3.905,10.237,0,14.143l8.056,8.056h0c3.906-3.903,10.237-3.903,14.143,0l64.748,64.748l30.145-30.145l63.983-63.983
		L416.277,292.001z M339.229,292.869c-1.977,1.977-4.604,3.064-7.397,3.064s-5.421-1.088-7.396-3.063
		c-4.079-4.079-4.079-10.717-0.001-14.795c1.977-1.977,4.604-3.064,7.397-3.064s5.421,1.088,7.396,3.063
		C343.307,282.154,343.307,288.791,339.229,292.869z M384.914,299.417c-1.958,1.958-4.585,3.046-7.379,3.046
		c-2.795,0-5.422-1.088-7.397-3.064c-4.068-4.068-4.077-10.696-0.021-14.775c1.996-1.996,4.623-3.084,7.418-3.084
		c2.794,0,5.421,1.088,7.396,3.064c1.98,1.98,3.069,4.612,3.065,7.412C387.993,294.815,386.898,297.444,384.914,299.417z"/>
	<path d="M384.914,299.417c-1.958,1.958-4.585,3.046-7.379,3.046c-2.795,0-5.422-1.088-7.397-3.064
		c-4.068-4.068-4.077-10.696-0.021-14.775c1.996-1.996,4.623-3.084,7.418-3.084c2.794,0,5.421,1.088,7.396,3.064
		c1.98,1.98,3.069,4.612,3.065,7.412C387.993,294.815,386.898,297.444,384.914,299.417z"/>
	<path d="M331.831,275.011c-2.794,0-5.421,1.088-7.397,3.064c-4.078,4.078-4.078,10.716,0.001,14.795
		c1.976,1.976,4.603,3.063,7.396,3.063s5.421-1.088,7.397-3.064c4.078-4.078,4.078-10.716-0.001-14.795
		C337.252,276.099,334.625,275.011,331.831,275.011z"/>
	
		<rect x="367.155" y="335.759" transform="matrix(-0.7071 -0.7071 0.7071 -0.7071 371.0075 895.6808)" style="fill:#CCCCCC;" width="7.701" height="70.487"/>
	<path style="fill:#CAA76A;" d="M166.247,141.213L145.534,120.5c-11.078,17.538-8.995,41.064,6.273,56.335l1.846,1.847
		C153.891,165.022,158.282,152.046,166.247,141.213z"/>
	<path style="fill:#CAA76A;" d="M208.736,214.959c0,8.72,2.453,17.057,7.013,24.245l24.245-24.245l-24.245-24.245
		C211.189,197.903,208.736,206.24,208.736,214.959z"/>
	<path style="fill:#CAA76A;" d="M180.638,155.604c-4.559,7.188-7.013,15.525-7.013,24.244c0,12.127,4.723,23.528,13.297,32.103
		l0.001,0.001l1.841,1.841c0.238-13.66,4.63-26.635,12.595-37.468L180.638,155.604z"/>
	<path style="fill:#CAA76A;" d="M124.611,99.576c-1.87-1.871-3.918-2.742-6.444-2.742c-7.243,0-16.618,7.296-20.063,15.612
		c-0.039,0.093-0.065,0.179-0.102,0.271c-0.141,0.353-0.275,0.701-0.387,1.036c-0.059,0.176-0.102,0.341-0.154,0.512
		c-0.074,0.243-0.15,0.489-0.21,0.723c-0.045,0.178-0.077,0.347-0.115,0.519c-0.046,0.213-0.094,0.427-0.129,0.631
		c-0.029,0.17-0.048,0.333-0.07,0.498c-0.025,0.193-0.05,0.387-0.066,0.571c-0.013,0.159-0.02,0.312-0.026,0.465
		c-0.008,0.178-0.013,0.355-0.012,0.525c0.001,0.146,0.006,0.289,0.012,0.431c0.008,0.164,0.019,0.326,0.034,0.483
		c0.013,0.134,0.028,0.266,0.046,0.394c0.021,0.152,0.046,0.301,0.074,0.446c0.023,0.12,0.046,0.24,0.073,0.355
		c0.033,0.143,0.071,0.279,0.11,0.415c0.031,0.105,0.06,0.213,0.094,0.314c0.044,0.135,0.093,0.262,0.142,0.389
		c0.035,0.091,0.069,0.185,0.106,0.272c0.055,0.128,0.114,0.248,0.172,0.368c0.037,0.074,0.072,0.153,0.109,0.225
		c0.072,0.136,0.146,0.263,0.22,0.387c0.027,0.046,0.054,0.097,0.082,0.141c0.104,0.166,0.209,0.321,0.314,0.467
		c0.024,0.034,0.048,0.063,0.073,0.095c0.081,0.108,0.161,0.215,0.24,0.313c0.041,0.05,0.08,0.094,0.12,0.141
		c0.061,0.072,0.123,0.146,0.181,0.21c0.043,0.048,0.083,0.091,0.124,0.135c0.048,0.052,0.097,0.104,0.143,0.151
		c0.168,0.154,0.324,0.32,0.481,0.486l18.787,18.786c0.228-13.209,4.406-26.361,12.566-37.496L124.611,99.576z"/>
	<path style="fill:#E5E5E5;" d="M71.988,86.329c-3.13,7.557,0.336,11.023,1.476,12.162l6.204,6.204
		c4.696-11.258,14.363-20.548,25.055-25.008l-6.228-6.228c-1.87-1.871-3.918-2.742-6.444-2.742
		C84.808,70.718,75.432,78.013,71.988,86.329z"/>
</g>
<g>
</g>
<g>
</g>
<g>
</g>
<g>
</g>
<g>
</g>
<g>
</g>
<g>
</g>
<g>
</g>
<g>
</g>
<g>
</g>
<g>
</g>
<g>
</g>
<g>
</g>
<g>
</g>
<g>
</g>
</svg>
