<?xml version="1.0" encoding="iso-8859-1"?>
<!-- Generator: Adobe Illustrator 17.1.0, SVG Export Plug-In . SVG Version: 6.00 Build 0)  -->
<!DOCTYPE svg PUBLIC "-//W3C//DTD SVG 1.1//EN" "http://www.w3.org/Graphics/SVG/1.1/DTD/svg11.dtd">
<svg version="1.1" id="Capa_1" xmlns="http://www.w3.org/2000/svg" xmlns:xlink="http://www.w3.org/1999/xlink" x="0px" y="0px"
	 viewBox="0 0 460 460" style="enable-background:new 0 0 460 460;" xml:space="preserve">
<g>
	<g>
		<polygon style="fill:#FDF133;" points="313.701,98.812 271.851,175.905 230,98.812 188.149,175.905 146.299,98.812 10,98.812 
			83.013,233.309 118.729,233.309 188.149,361.188 230,284.095 271.851,361.188 341.271,233.309 376.987,233.309 450,98.812 		"/>
		<path d="M271.851,371.188c-3.667,0-7.039-2.007-8.788-5.229L230,305.056l-33.063,60.904c-1.749,3.222-5.121,5.229-8.788,5.229
			s-7.039-2.007-8.788-5.229l-66.582-122.65H83.013c-3.667,0-7.039-2.007-8.789-5.229L1.211,103.583
			c-1.682-3.099-1.607-6.854,0.195-9.884S6.475,88.812,10,88.812h136.299c3.667,0,7.039,2.007,8.788,5.229l33.063,60.904
			l33.063-60.904c1.749-3.222,5.121-5.229,8.788-5.229s7.039,2.007,8.788,5.229l33.063,60.904l33.063-60.904
			c1.749-3.222,5.121-5.229,8.788-5.229H450c3.525,0,6.791,1.857,8.594,4.887s1.877,6.785,0.195,9.884l-73.013,134.498
			c-1.75,3.222-5.122,5.229-8.789,5.229h-29.767l-66.582,122.65C278.89,369.182,275.518,371.188,271.851,371.188z M230,274.095
			c3.667,0,7.039,2.007,8.788,5.229l33.063,60.904l60.632-111.689c1.749-3.222,5.121-5.229,8.788-5.229h29.767l62.156-114.498
			H319.651l-39.013,71.864c-1.749,3.222-5.121,5.229-8.788,5.229s-7.039-2.007-8.788-5.229L230,119.772l-33.063,60.904
			c-1.749,3.222-5.121,5.229-8.788,5.229s-7.039-2.007-8.788-5.229l-39.013-71.864H26.807L88.963,223.31h29.767
			c3.667,0,7.039,2.007,8.788,5.229l60.632,111.689l33.063-60.904C222.961,276.102,226.333,274.095,230,274.095z"/>
	</g>
	<path d="M146.299,201.206h-96.45c-5.522,0-10-4.477-10-10s4.478-10,10-10h96.45c5.522,0,10,4.477,10,10
		S151.821,201.206,146.299,201.206z"/>
	<path d="M410.151,201.206h-96.45c-5.522,0-10-4.477-10-10s4.478-10,10-10h96.45c5.522,0,10,4.477,10,10
		S415.674,201.206,410.151,201.206z"/>
	<path d="M271.851,278.546c-3.667,0-7.039-2.007-8.788-5.229L230,212.414l-33.063,60.904c-1.749,3.222-5.121,5.229-8.788,5.229
		s-7.039-2.007-8.788-5.229l-62.003-114.214H27.112c-5.522,0-10-4.477-10-10s4.478-10,10-10h96.196c3.667,0,7.039,2.007,8.788,5.229
		l56.053,103.254l33.063-60.904c1.749-3.222,5.121-5.229,8.788-5.229s7.039,2.007,8.788,5.229l33.063,60.904l56.053-103.254
		c1.749-3.222,5.121-5.229,8.788-5.229h96.196c5.522,0,10,4.477,10,10s-4.478,10-10,10h-90.246l-62.003,114.214
		C278.89,276.54,275.518,278.546,271.851,278.546z"/>
</g>
<g>
</g>
<g>
</g>
<g>
</g>
<g>
</g>
<g>
</g>
<g>
</g>
<g>
</g>
<g>
</g>
<g>
</g>
<g>
</g>
<g>
</g>
<g>
</g>
<g>
</g>
<g>
</g>
<g>
</g>
</svg>
